<?xml version="1.0" encoding="UTF-8"?>
<svg id="Layer_1" data-name="Layer 1" xmlns="http://www.w3.org/2000/svg" version="1.1" xmlns:xlink="http://www.w3.org/1999/xlink" viewBox="0 0 389.9 336">
  <defs>
    <style>
      .cls-1 {
        font-size: 10px;
      }

      .cls-1, .cls-2, .cls-3, .cls-4, .cls-5 {
        font-weight: 700;
      }

      .cls-1, .cls-3, .cls-4, .cls-5 {
        fill: #000;
      }

      .cls-6, .cls-7, .cls-8, .cls-9, .cls-10, .cls-11, .cls-12, .cls-13 {
        stroke: #333;
      }

      .cls-6, .cls-7, .cls-11, .cls-13 {
        stroke-miterlimit: 10;
      }

      .cls-6, .cls-14 {
        fill: #bfbfbf;
      }

      .cls-6, .cls-11, .cls-12, .cls-13 {
        stroke-width: 1.7px;
      }

      .cls-2 {
        fill: #fc0303;
        font-size: 21px;
      }

      .cls-2, .cls-15 {
        font-family: Arial-BoldItalicMT, Arial;
        font-style: italic;
      }

      .cls-7 {
        stroke-width: 3.4px;
      }

      .cls-7, .cls-16, .cls-8, .cls-10, .cls-11, .cls-12 {
        fill: none;
      }

      .cls-17 {
        clip-path: url(#clippath-2);
      }

      .cls-14, .cls-8, .cls-9, .cls-10, .cls-12, .cls-18, .cls-19 {
        stroke-linejoin: round;
      }

      .cls-14, .cls-9, .cls-10, .cls-18, .cls-19 {
        stroke-linecap: round;
      }

      .cls-14, .cls-9, .cls-19 {
        stroke-width: .7px;
      }

      .cls-14, .cls-19 {
        stroke: #000;
      }

      .cls-3 {
        font-size: 12px;
      }

      .cls-3, .cls-4, .cls-5 {
        isolation: isolate;
      }

      .cls-20, .cls-4, .cls-5 {
        font-family: Arial-BoldMT, Arial;
      }

      .cls-16, .cls-21 {
        stroke-width: 0px;
      }

      .cls-22 {
        clip-path: url(#clippath-1);
      }

      .cls-8, .cls-10, .cls-18 {
        stroke-width: 1.1px;
      }

      .cls-9 {
        fill: #333;
      }

      .cls-23 {
        clip-path: url(#clippath);
      }

      .cls-4 {
        font-size: 8.8px;
      }

      .cls-5 {
        font-size: 11px;
      }

      .cls-21, .cls-18 {
        fill: #fff;
      }

      .cls-18 {
        stroke: #fff;
      }

      .cls-13, .cls-19 {
        fill: #4472c4;
      }
    </style>
    <clipPath id="clippath">
      <rect class="cls-16" y="0" width="384" height="336"/>
    </clipPath>
    <clipPath id="clippath-1">
      <rect class="cls-16" x="43.7" y="5.5" width="259.1" height="296.1"/>
    </clipPath>
    <clipPath id="clippath-2">
      <rect class="cls-16" y="0" width="384" height="336"/>
    </clipPath>
  </defs>
  <rect class="cls-21" y="0" width="384" height="336"/>
  <g class="cls-23">
    <rect class="cls-18" y="0" width="384" height="336"/>
  </g>
  <g class="cls-22">
    <g>
      <rect class="cls-21" x="43.7" y="5.5" width="259.1" height="296.1"/>
      <line class="cls-12" x1="114.4" y1="95.2" x2="114.4" y2="41.4"/>
      <line class="cls-12" x1="114.4" y1="178.2" x2="114.4" y2="220.8"/>
      <polygon class="cls-6" points="70.2 95.2 70.2 178.2 158.5 178.2 158.5 95.2 70.2 95.2"/>
      <line class="cls-7" x1="70.2" y1="153.5" x2="158.5" y2="153.5"/>
      <circle class="cls-9" cx="232.1" cy="63.8" r="1.9"/>
      <line class="cls-12" x1="232.1" y1="180.4" x2="232.1" y2="135.6"/>
      <line class="cls-12" x1="232.1" y1="223" x2="232.1" y2="238.7"/>
      <polygon class="cls-13" points="188 180.4 188 223 276.3 223 276.3 180.4 188 180.4"/>
      <line class="cls-7" x1="188" y1="198.4" x2="276.3" y2="198.4"/>
      <circle class="cls-14" cx="117.5" cy="140.1" r="2.5"/>
      <circle class="cls-14" cx="119.5" cy="99.5" r="2.5"/>
      <circle class="cls-14" cx="112.5" cy="171.3" r="2.5"/>
      <circle class="cls-14" cx="113.1" cy="90.5" r="2.5"/>
      <circle class="cls-14" cx="114.6" cy="171.2" r="2.5"/>
      <circle class="cls-14" cx="110.6" cy="220.4" r="2.5"/>
      <circle class="cls-14" cx="115.1" cy="194" r="2.5"/>
      <circle class="cls-19" cx="237.1" cy="198.3" r="2.5"/>
      <circle class="cls-19" cx="228.9" cy="239.1" r="2.5"/>
      <circle class="cls-19" cx="235.4" cy="63.5" r="2.5"/>
      <circle class="cls-19" cx="233.3" cy="144.1" r="2.5"/>
      <circle class="cls-19" cx="233.9" cy="198.4" r="2.5"/>
      <circle class="cls-19" cx="237.7" cy="207.6" r="2.5"/>
      <circle class="cls-19" cx="233.7" cy="189.8" r="2.5"/>
      <circle class="cls-19" cx="230.5" cy="220.9" r="2.5"/>
      <circle class="cls-19" cx="235.2" cy="171.4" r="2.5"/>
      <circle class="cls-14" cx="108.9" cy="193.8" r="2.5"/>
      <circle class="cls-14" cx="116.3" cy="184.8" r="2.5"/>
      <circle class="cls-14" cx="115.6" cy="104.4" r="2.5"/>
      <circle class="cls-14" cx="115.3" cy="90.3" r="2.5"/>
      <circle class="cls-14" cx="110.4" cy="171.9" r="2.5"/>
      <circle class="cls-14" cx="114.4" cy="91.1" r="2.5"/>
      <circle class="cls-14" cx="110.5" cy="153.5" r="2.5"/>
      <circle class="cls-14" cx="115.5" cy="41.6" r="2.5"/>
      <circle class="cls-19" cx="231.6" cy="229.5" r="2.5"/>
      <circle class="cls-19" cx="231.9" cy="135.5" r="2.5"/>
      <circle class="cls-19" cx="237.3" cy="220.9" r="2.5"/>
      <circle class="cls-19" cx="234.1" cy="203" r="2.5"/>
      <circle class="cls-19" cx="235.8" cy="230.2" r="2.5"/>
      <circle class="cls-19" cx="228.6" cy="198.5" r="2.5"/>
      <circle class="cls-19" cx="236.4" cy="189.3" r="2.5"/>
      <circle class="cls-19" cx="232.2" cy="144.8" r="2.5"/>
      <circle class="cls-19" cx="227" cy="225.4" r="2.5"/>
      <circle class="cls-19" cx="234.6" cy="234.3" r="2.5"/>
      <rect class="cls-10" x="43.7" y="5.5" width="259.1" height="296.1"/>
    </g>
  </g>
  <g class="cls-17">
    <g>
      <text class="cls-5" transform="translate(32.7 292)"><tspan x="0" y="0">0</tspan></text>
      <text class="cls-5" transform="translate(26.6 202.3)"><tspan x="0" y="0">20</tspan></text>
      <text class="cls-5" transform="translate(26.6 112.6)"><tspan x="0" y="0">40</tspan></text>
      <text class="cls-5" transform="translate(26.6 22.9)"><tspan x="0" y="0">60</tspan></text>
      <line class="cls-8" x1="41" y1="288.1" x2="43.7" y2="288.1"/>
      <line class="cls-8" x1="41" y1="198.4" x2="43.7" y2="198.4"/>
      <line class="cls-8" x1="41" y1="108.6" x2="43.7" y2="108.6"/>
      <line class="cls-8" x1="41" y1="18.9" x2="43.7" y2="18.9"/>
      <line class="cls-8" x1="114.4" y1="304.3" x2="114.4" y2="301.5"/>
      <line class="cls-8" x1="232.1" y1="304.3" x2="232.1" y2="301.5"/>
      <text class="cls-5" transform="translate(73.7 314.3)"><tspan x="0" y="0">Control-inocula</tspan></text>
      <text class="cls-5" transform="translate(203.4 314.3)"><tspan x="0" y="0">SA-inocula</tspan></text>
      <text class="cls-3" transform="translate(14.1 256.2) rotate(-90)"><tspan class="cls-20" x="0" y="0">Number of </tspan><tspan class="cls-15" x="63.3" y="0">M. persicae</tspan><tspan class="cls-20" x="128.7" y="0" xml:space="preserve"> aphids 14dpi</tspan></text>
      <rect class="cls-21" x="302.8" y="136.2" width="17.3" height="17.3"/>
      <line class="cls-11" x1="311.4" y1="151.8" x2="311.4" y2="149.2"/>
      <line class="cls-11" x1="311.4" y1="140.5" x2="311.4" y2="137.9"/>
      <rect class="cls-6" x="305" y="140.5" width="13" height="8.6"/>
      <line class="cls-11" x1="305" y1="144.9" x2="317.9" y2="144.9"/>
      <circle class="cls-14" cx="311.4" cy="144.9" r="2.5"/>
      <rect class="cls-21" x="302.8" y="153.5" width="17.3" height="17.3"/>
      <line class="cls-11" x1="311.4" y1="169.1" x2="311.4" y2="166.5"/>
      <line class="cls-11" x1="311.4" y1="157.8" x2="311.4" y2="155.2"/>
      <rect class="cls-13" x="305" y="157.8" width="13" height="8.6"/>
      <line class="cls-11" x1="305" y1="162.1" x2="317.9" y2="162.1"/>
      <circle class="cls-19" cx="311.4" cy="162.1" r="2.5"/>
      <text class="cls-4" transform="translate(320.1 148.1)"><tspan x="0" y="0">Control-inocula</tspan></text>
      <text class="cls-4" transform="translate(320.1 164.6)"><tspan x="0" y="0">SA-inocula</tspan></text>
    </g>
  </g>
  <text class="cls-1" transform="translate(47.5 292)"><tspan class="cls-15" x="0" y="0">N = </tspan><tspan class="cls-20" x="18.6" y="0">15-18</tspan></text>
  <text class="cls-1" transform="translate(47.9 20.4)"><tspan class="cls-15" x="0" y="0">P = </tspan><tspan class="cls-20" x="18.1" y="0">0.002</tspan></text>
  <text class="cls-2" transform="translate(168.9 47.6)"><tspan x="0" y="0">**</tspan></text>
</svg>