<?xml version="1.0" encoding="UTF-8"?>
<svg id="Layer_1" data-name="Layer 1" xmlns="http://www.w3.org/2000/svg" version="1.1" xmlns:xlink="http://www.w3.org/1999/xlink" viewBox="0 0 365.7 302.4">
  <defs>
    <style>
      .cls-1, .cls-2, .cls-3, .cls-4, .cls-5 {
        fill: #000;
        font-weight: 700;
      }

      .cls-1, .cls-3 {
        font-size: 10px;
      }

      .cls-2 {
        font-size: 13px;
      }

      .cls-2, .cls-6, .cls-3, .cls-4, .cls-5 {
        font-family: Arial-BoldMT, Arial;
      }

      .cls-2, .cls-4, .cls-5 {
        isolation: isolate;
      }

      .cls-7 {
        letter-spacing: 0em;
      }

      .cls-8 {
        clip-path: url(#clippath-2);
      }

      .cls-9, .cls-10, .cls-11, .cls-12, .cls-13, .cls-14, .cls-15, .cls-16, .cls-17, .cls-18, .cls-19 {
        stroke-linejoin: round;
      }

      .cls-9, .cls-20, .cls-11, .cls-12, .cls-14, .cls-15, .cls-16, .cls-17, .cls-18 {
        fill: none;
      }

      .cls-9, .cls-11, .cls-16, .cls-19 {
        stroke-width: 1.1px;
      }

      .cls-9, .cls-18 {
        stroke: #ebebeb;
      }

      .cls-10 {
        fill: #7d7d7d;
      }

      .cls-10, .cls-13 {
        stroke-width: .7px;
      }

      .cls-10, .cls-13, .cls-16, .cls-19 {
        stroke-linecap: round;
      }

      .cls-10, .cls-14, .cls-15 {
        stroke: #7d7d7d;
      }

      .cls-20, .cls-21 {
        stroke-width: 0px;
      }

      .cls-22 {
        clip-path: url(#clippath-1);
      }

      .cls-11, .cls-16 {
        stroke: #333;
      }

      .cls-12, .cls-13, .cls-17 {
        stroke: #4472c4;
      }

      .cls-12, .cls-15 {
        stroke-width: 1.7px;
      }

      .cls-13 {
        fill: #4472c4;
      }

      .cls-4 {
        font-size: 13px;
      }

      .cls-23 {
        letter-spacing: 0em;
      }

      .cls-24 {
        clip-path: url(#clippath);
      }

      .cls-14, .cls-17 {
        stroke-width: 1.9px;
      }

      .cls-25 {
        font-family: Arial-BoldItalicMT, Arial;
        font-style: italic;
      }

      .cls-5 {
        font-size: 11px;
      }

      .cls-18 {
        stroke-width: .5px;
      }

      .cls-21, .cls-19 {
        fill: #fff;
      }

      .cls-19 {
        stroke: #fff;
      }

      .cls-26 {
        letter-spacing: 0em;
      }
    </style>
    <clipPath id="clippath">
      <rect class="cls-20" y="0" width="365.7" height="302.4"/>
    </clipPath>
    <clipPath id="clippath-1">
      <rect class="cls-20" x="44.7" y="5.5" width="221.4" height="261.5"/>
    </clipPath>
    <clipPath id="clippath-2">
      <rect class="cls-20" y="2.4" width="365.7" height="302.4"/>
    </clipPath>
  </defs>
  <rect class="cls-21" y="0" width="345.6" height="302.4"/>
  <g class="cls-24">
    <rect class="cls-19" y="0" width="365.7" height="302.4"/>
  </g>
  <g class="cls-22">
    <g>
      <rect class="cls-21" x="44.7" y="5.5" width="221.4" height="261.5"/>
      <line class="cls-18" x1="44.7" y1="215.5" x2="266.1" y2="215.5"/>
      <line class="cls-18" x1="44.7" y1="136.2" x2="266.1" y2="136.2"/>
      <line class="cls-18" x1="44.7" y1="57" x2="266.1" y2="57"/>
      <line class="cls-18" x1="58.6" y1="267" x2="58.6" y2="5.5"/>
      <line class="cls-18" x1="136" y1="267" x2="136" y2="5.5"/>
      <line class="cls-18" x1="213.5" y1="267" x2="213.5" y2="5.5"/>
      <line class="cls-9" x1="44.7" y1="255.1" x2="266.1" y2="255.1"/>
      <line class="cls-9" x1="44.7" y1="175.9" x2="266.1" y2="175.9"/>
      <line class="cls-9" x1="44.7" y1="96.6" x2="266.1" y2="96.6"/>
      <line class="cls-9" x1="44.7" y1="17.4" x2="266.1" y2="17.4"/>
      <line class="cls-9" x1="97.3" y1="267" x2="97.3" y2="5.5"/>
      <line class="cls-9" x1="174.7" y1="267" x2="174.7" y2="5.5"/>
      <line class="cls-9" x1="252.2" y1="267" x2="252.2" y2="5.5"/>
      <line class="cls-15" x1="54.7" y1="241.9" x2="62.5" y2="241.9"/>
      <line class="cls-15" x1="58.6" y1="241.9" x2="58.6" y2="251.6"/>
      <line class="cls-15" x1="54.7" y1="251.6" x2="62.5" y2="251.6"/>
      <line class="cls-12" x1="54.7" y1="232" x2="62.5" y2="232"/>
      <line class="cls-12" x1="58.6" y1="232" x2="58.6" y2="249.7"/>
      <line class="cls-12" x1="54.7" y1="249.7" x2="62.5" y2="249.7"/>
      <line class="cls-15" x1="93.4" y1="211.2" x2="101.2" y2="211.2"/>
      <line class="cls-15" x1="97.3" y1="211.2" x2="97.3" y2="250.7"/>
      <line class="cls-15" x1="93.4" y1="250.7" x2="101.2" y2="250.7"/>
      <line class="cls-12" x1="93.4" y1="192.1" x2="101.2" y2="192.1"/>
      <line class="cls-12" x1="97.3" y1="192.1" x2="97.3" y2="235.2"/>
      <line class="cls-12" x1="93.4" y1="235.2" x2="101.2" y2="235.2"/>
      <line class="cls-15" x1="132.2" y1="136" x2="139.9" y2="136"/>
      <line class="cls-15" x1="136" y1="136" x2="136" y2="198.8"/>
      <line class="cls-15" x1="132.2" y1="198.8" x2="139.9" y2="198.8"/>
      <line class="cls-12" x1="132.2" y1="176.4" x2="139.9" y2="176.4"/>
      <line class="cls-12" x1="136" y1="176.4" x2="136" y2="231.6"/>
      <line class="cls-12" x1="132.2" y1="231.6" x2="139.9" y2="231.6"/>
      <line class="cls-15" x1="170.9" y1="117.1" x2="178.6" y2="117.1"/>
      <line class="cls-15" x1="174.7" y1="117.1" x2="174.7" y2="181"/>
      <line class="cls-15" x1="170.9" y1="181" x2="178.6" y2="181"/>
      <line class="cls-12" x1="170.9" y1="185.7" x2="178.6" y2="185.7"/>
      <line class="cls-12" x1="174.7" y1="185.7" x2="174.7" y2="228.4"/>
      <line class="cls-12" x1="170.9" y1="228.4" x2="178.6" y2="228.4"/>
      <line class="cls-15" x1="209.6" y1="94.9" x2="217.3" y2="94.9"/>
      <line class="cls-15" x1="213.5" y1="94.9" x2="213.5" y2="172.3"/>
      <line class="cls-15" x1="209.6" y1="172.3" x2="217.3" y2="172.3"/>
      <line class="cls-12" x1="209.6" y1="213.6" x2="217.3" y2="213.6"/>
      <line class="cls-12" x1="213.5" y1="213.6" x2="213.5" y2="246.3"/>
      <line class="cls-12" x1="209.6" y1="246.3" x2="217.3" y2="246.3"/>
      <line class="cls-15" x1="248.3" y1="35.9" x2="256" y2="35.9"/>
      <line class="cls-15" x1="252.2" y1="35.9" x2="252.2" y2="118.2"/>
      <line class="cls-15" x1="248.3" y1="118.2" x2="256" y2="118.2"/>
      <line class="cls-12" x1="248.3" y1="180.1" x2="256" y2="180.1"/>
      <line class="cls-12" x1="252.2" y1="180.1" x2="252.2" y2="214.6"/>
      <line class="cls-12" x1="248.3" y1="214.6" x2="256" y2="214.6"/>
      <polyline class="cls-14" points="58.6 246.7 97.3 230.9 136 167.4 174.7 149.1 213.5 133.6 252.2 77.1"/>
      <polyline class="cls-17" points="58.6 240.9 97.3 213.7 136 204 174.7 207.1 213.5 229.9 252.2 197.3"/>
      <circle class="cls-10" cx="58.6" cy="246.7" r="3.6"/>
      <circle class="cls-13" cx="58.6" cy="240.9" r="3.6"/>
      <circle class="cls-10" cx="97.3" cy="230.9" r="3.6"/>
      <circle class="cls-13" cx="97.3" cy="213.7" r="3.6"/>
      <circle class="cls-10" cx="136" cy="167.4" r="3.6"/>
      <circle class="cls-13" cx="136" cy="204" r="3.6"/>
      <circle class="cls-10" cx="174.7" cy="149.1" r="3.6"/>
      <circle class="cls-13" cx="174.7" cy="207.1" r="3.6"/>
      <circle class="cls-10" cx="213.5" cy="133.6" r="3.6"/>
      <circle class="cls-13" cx="213.5" cy="229.9" r="3.6"/>
      <circle class="cls-10" cx="252.2" cy="77.1" r="3.6"/>
      <circle class="cls-13" cx="252.2" cy="197.3" r="3.6"/>
      <rect class="cls-16" x="44.7" y="5.5" width="221.4" height="261.5"/>
    </g>
  </g>
  <g class="cls-8">
    <g>
      <text class="cls-5" transform="translate(33.6 259.1)"><tspan x="0" y="0">0</tspan></text>
      <text class="cls-5" transform="translate(27.5 179.8)"><tspan x="0" y="0">20</tspan></text>
      <text class="cls-5" transform="translate(27.5 100.6)"><tspan x="0" y="0">40</tspan></text>
      <text class="cls-5" transform="translate(27.5 21.3)"><tspan x="0" y="0">60</tspan></text>
      <line class="cls-11" x1="42" y1="255.1" x2="44.7" y2="255.1"/>
      <line class="cls-11" x1="42" y1="175.9" x2="44.7" y2="175.9"/>
      <line class="cls-11" x1="42" y1="96.6" x2="44.7" y2="96.6"/>
      <line class="cls-11" x1="42" y1="17.4" x2="44.7" y2="17.4"/>
      <line class="cls-11" x1="97.4" y1="269.7" x2="97.4" y2="267"/>
      <line class="cls-11" x1="175" y1="269.7" x2="175" y2="267"/>
      <line class="cls-11" x1="252.5" y1="269.7" x2="252.5" y2="267"/>
      <text class="cls-5" transform="translate(94.4 279.8)"><tspan x="0" y="0">2</tspan></text>
      <text class="cls-5" transform="translate(171.9 279.8)"><tspan x="0" y="0">4</tspan></text>
      <text class="cls-5" transform="translate(249.5 279.8)"><tspan x="0" y="0">6</tspan></text>
      <text class="cls-4" transform="translate(130.4 294.2)"><tspan x="0" y="0">Time</tspan><tspan class="cls-7" x="30.3" y="0"> </tspan><tspan x="33.7" y="0">(h)</tspan></text>
      <text class="cls-2" transform="translate(14.8 213) rotate(-90)"><tspan x="0" y="0">Time</tspan><tspan class="cls-23" x="30.4" y="0"> </tspan><tspan x="33.9" y="0">phloem</tspan><tspan class="cls-23" x="80.2" y="0"> </tspan><tspan x="83.8" y="0">feeding</tspan><tspan class="cls-26" x="130" y="0"> </tspan><tspan x="133.6" y="0">(%)</tspan></text>
      <rect class="cls-21" x="267.1" y="8.2" width="17.3" height="17.3"/>
      <line class="cls-15" x1="268.8" y1="16.8" x2="282.7" y2="16.8"/>
      <line class="cls-14" x1="268.8" y1="16.8" x2="282.7" y2="16.8"/>
      <ellipse class="cls-10" cx="275.8" cy="16.8" rx="3.6" ry="3.6"/>
      <rect class="cls-21" x="267.1" y="25.5" width="17.3" height="17.3"/>
      <line class="cls-12" x1="268.8" y1="34.1" x2="282.7" y2="34.1"/>
      <line class="cls-17" x1="268.8" y1="34.1" x2="282.7" y2="34.1"/>
      <ellipse class="cls-13" cx="275.8" cy="34.1" rx="3.6" ry="3.6"/>
      <text class="cls-3" transform="translate(288 37.7)"><tspan x="0" y="0">SA-inocula</tspan></text>
      <text class="cls-3" transform="translate(287.6 20.4) scale(1 1)"><tspan x="0" y="0">Control-inocula</tspan></text>
    </g>
  </g>
  <text class="cls-1" transform="translate(53.9 27.7)"><tspan class="cls-25" x="0" y="0">P</tspan><tspan class="cls-6" x="6.7" y="0" xml:space="preserve"> &lt; 0.001</tspan></text>
  <text class="cls-1" transform="translate(54.3 40.2)"><tspan class="cls-25" x="0" y="0">N</tspan><tspan class="cls-6" x="7.2" y="0" xml:space="preserve"> = 15-18</tspan></text>
</svg>